<svg width="121" height="29" viewBox="0 0 121 29" fill="none" xmlns="http://www.w3.org/2000/svg">
<path d="M10.5182 15.0609L17.6213 12.7461V0H10.5182V15.0609ZM0 26H7.10317V18.2352L0 20.55V26ZM21.0461 11.6228L28.1492 9.30804V0H21.0461V11.6228ZM42.0824 26H49.1855V4.49286L42.0824 6.80766V26ZM10.5182 26H17.6213V14.7971L10.5182 17.1119V26ZM52.6005 3.37941V26H59.7037V1.05484L52.6005 3.37941ZM31.5642 26H38.6674V7.93088L31.5642 10.2457V26Z" fill="white"/>
<path d="M67.176 10.164V7.41C67.176 7.194 67.14 7.056 67.068 6.996C67.008 6.924 66.87 6.888 66.654 6.888H65.322C64.23 6.888 63.684 6.354 63.684 5.286V2.316C63.684 1.26 64.242 0.731999 65.358 0.731999H67.122C68.238 0.731999 68.796 1.26 68.796 2.316V3.972H67.158V2.568C67.158 2.352 67.122 2.214 67.05 2.154C66.978 2.082 66.834 2.046 66.618 2.046H65.862C65.646 2.046 65.502 2.082 65.43 2.154C65.358 2.214 65.322 2.352 65.322 2.568V5.07C65.322 5.286 65.358 5.43 65.43 5.502C65.502 5.562 65.646 5.592 65.862 5.592H67.176C68.28 5.592 68.832 6.12 68.832 7.176V10.416C68.832 11.472 68.268 12 67.14 12H65.394C64.278 12 63.72 11.472 63.72 10.416V8.76H65.358V10.164C65.358 10.38 65.394 10.524 65.466 10.596C65.538 10.656 65.682 10.686 65.898 10.686H66.654C66.87 10.686 67.008 10.656 67.068 10.596C67.14 10.524 67.176 10.38 67.176 10.164ZM72.0779 10.686H75.3359V12H70.4399V0.731999H75.2099V2.046H72.0779V5.52H74.6699V6.834H72.0779V10.686ZM80.5698 5.106V2.532C80.5698 2.316 80.5338 2.178 80.4618 2.118C80.3898 2.046 80.2458 2.01 80.0298 2.01H78.2298V5.628H80.0298C80.2458 5.628 80.3898 5.598 80.4618 5.538C80.5338 5.466 80.5698 5.322 80.5698 5.106ZM80.5698 10.2V7.428C80.5698 7.212 80.5338 7.074 80.4618 7.014C80.3898 6.942 80.2458 6.906 80.0298 6.906H78.2298V10.722H80.0298C80.2458 10.722 80.3898 10.692 80.4618 10.632C80.5338 10.56 80.5698 10.416 80.5698 10.2ZM76.6098 0.731999H80.5158C81.6438 0.731999 82.2078 1.26 82.2078 2.316V5.178C82.2078 5.814 81.9678 6.186 81.4878 6.294C81.9678 6.414 82.2078 6.762 82.2078 7.338V10.416C82.2078 11.472 81.6438 12 80.5158 12H76.6098V0.731999ZM88.1151 12L87.6651 9.39H85.2891L84.8751 12H83.2551L85.2531 0.731999H87.6111L89.7531 12H88.1151ZM85.4871 8.076H87.4491L86.4231 2.136L85.4871 8.076ZM94.1408 10.164V7.41C94.1408 7.194 94.1048 7.056 94.0328 6.996C93.9728 6.924 93.8348 6.888 93.6188 6.888H92.2868C91.1948 6.888 90.6488 6.354 90.6488 5.286V2.316C90.6488 1.26 91.2068 0.731999 92.3228 0.731999H94.0868C95.2028 0.731999 95.7608 1.26 95.7608 2.316V3.972H94.1228V2.568C94.1228 2.352 94.0868 2.214 94.0148 2.154C93.9428 2.082 93.7988 2.046 93.5828 2.046H92.8268C92.6108 2.046 92.4668 2.082 92.3948 2.154C92.3228 2.214 92.2868 2.352 92.2868 2.568V5.07C92.2868 5.286 92.3228 5.43 92.3948 5.502C92.4668 5.562 92.6108 5.592 92.8268 5.592H94.1408C95.2448 5.592 95.7968 6.12 95.7968 7.176V10.416C95.7968 11.472 95.2328 12 94.1048 12H92.3588C91.2428 12 90.6848 11.472 90.6848 10.416V8.76H92.3228V10.164C92.3228 10.38 92.3588 10.524 92.4308 10.596C92.5028 10.656 92.6468 10.686 92.8628 10.686H93.6188C93.8348 10.686 93.9728 10.656 94.0328 10.596C94.1048 10.524 94.1408 10.38 94.1408 10.164ZM101.959 0.731999V2.046H100.069V12H98.4488V2.046H96.5588V0.731999H101.959ZM103.121 0.731999H104.741V12H103.121V0.731999ZM110.896 12L110.446 9.39H108.07L107.656 12H106.036L108.034 0.731999H110.392L112.534 12H110.896ZM108.268 8.076H110.23L109.204 2.136L108.268 8.076ZM117.696 0.731999H119.19V12H117.552L115.176 3.864V12H113.682V0.731999H115.392L117.696 8.634V0.731999ZM65.358 26H63.936V14.732H65.718L67.644 21.716L69.57 14.732H71.352V26H69.93V17.756L68.382 23.552H66.906L65.358 17.774V26ZM77.3573 26L76.9072 23.39H74.5312L74.1173 26H72.4973L74.4953 14.732H76.8533L78.9953 26H77.3573ZM74.7293 22.076H76.6913L75.6653 16.136L74.7293 22.076ZM81.763 21.446V26H80.143V14.732H83.833C84.949 14.732 85.507 15.26 85.507 16.316V19.844C85.507 20.756 85.105 21.278 84.301 21.41L86.083 26H84.337L82.645 21.446H81.763ZM81.763 16.046V20.15H83.347C83.563 20.15 83.707 20.12 83.779 20.06C83.851 19.988 83.887 19.844 83.887 19.628V16.568C83.887 16.352 83.851 16.214 83.779 16.154C83.707 16.082 83.563 16.046 83.347 16.046H81.763ZM91.8338 14.732V16.046H89.9438V26H88.3238V16.046H86.4338V14.732H91.8338ZM92.996 14.732H94.616V26H92.996V14.732ZM100.645 14.732H102.139V26H100.501L98.1253 17.864V26H96.6313V14.732H98.3413L100.645 22.634V14.732Z" fill="#F8F8F8"/>
</svg>
